<?xml version="1.0" standalone="no"?>
<!DOCTYPE svg PUBLIC "-//W3C//DTD SVG 20010904//EN"
 "http://www.w3.org/TR/2001/REC-SVG-20010904/DTD/svg10.dtd">
<svg version="1.0" xmlns="http://www.w3.org/2000/svg"
 width="300.000000pt" height="300.000000pt" viewBox="0 0 300.000000 300.000000"
 preserveAspectRatio="xMidYMid meet">
<metadata>
Created by potrace 1.11, written by Peter Selinger 2001-2013
</metadata>
<g transform="translate(0.000000,300.000000) scale(0.100000,-0.100000)"
fill="#000000" stroke="none">
<path d="M1439 2802 c-19 -10 -110 -83 -202 -162 -92 -80 -171 -146 -175 -148
-5 -1 -8 27 -7 63 2 92 -4 124 -28 136 -12 7 -93 11 -204 12 -171 1 -185 -1
-204 -19 -19 -20 -20 -34 -21 -310 l-1 -289 -81 -69 c-45 -38 -106 -90 -136
-117 -30 -26 -125 -108 -210 -181 -133 -115 -155 -138 -158 -166 -5 -46 23
-53 202 -52 83 1 159 1 168 0 16 0 17 -44 17 -648 0 -396 4 -658 10 -674 5
-14 17 -28 26 -32 9 -3 484 -6 1055 -6 992 0 1039 1 1060 18 l23 19 0 654 c0
386 4 656 9 660 5 3 71 7 146 8 147 2 222 8 235 20 10 10 0 50 -16 71 -7 8
-41 40 -77 70 -36 30 -78 67 -95 82 -16 14 -151 131 -300 258 -148 128 -286
247 -305 264 -41 36 -169 146 -187 161 -7 6 -26 21 -41 35 -206 184 -407 350
-423 350 -9 0 -23 2 -31 5 -7 3 -29 -3 -49 -13z"/>
</g>
</svg>
